<svg xmlns="http://www.w3.org/2000/svg" xmlns:xlink="http://www.w3.org/1999/xlink" viewBox="0 0 28 28">
  <defs>
    <style>
      .cls-1 {
        fill: #edf2f5;
      }

      .cls-2 {
        clip-path: url(#clip-path);
      }

      .cls-3 {
        fill: #888e9b;
      }
    </style>
    <clipPath id="clip-path">
      <rect id="Rectangle_27" data-name="Rectangle 27" class="cls-1" width="28" height="28" transform="translate(40 123)"/>
    </clipPath>
  </defs>
  <g id="Mask_Group_11" data-name="Mask Group 11" class="cls-2" transform="translate(-40 -123)">
    <g id="delivery" transform="translate(40 123)">
      <path id="Path_25" data-name="Path 25" class="cls-3" d="M21.11,18.594H18.238V16.881a6.965,6.965,0,0,0,2.734-5.533V10.117h.684a.41.41,0,0,0,.41-.41c0-.4-.4-.839-1.094-1.238v-1.5a6.973,6.973,0,1,0-13.946,0v1.5c-.7.4-1.094.837-1.094,1.238a.41.41,0,0,0,.41.41h.684v1.231a6.965,6.965,0,0,0,2.734,5.533v1.713H6.89a3.148,3.148,0,0,0-3.145,3.145s0,0,0,0v2.184a.41.41,0,0,0,.82,0v-2.19A2.327,2.327,0,0,1,6.89,19.414h3.157l1.537,1.025.018.01.024.014.035.015.023.009.041.01.021,0a.412.412,0,0,0,.06.005h0a.413.413,0,0,0,.067-.006l.032-.006h0L14,19.974l2.088.522h0l.033.006a.413.413,0,0,0,.066.006h0a.412.412,0,0,0,.06-.005l.021,0,.041-.01.023-.009.035-.015.024-.014.018-.01,1.537-1.025H21.11a2.327,2.327,0,0,1,2.324,2.324v5.441H20.973V24.254c0-.014,0-.027,0-.041s0-.011,0-.016,0-.016,0-.023,0-.013,0-.019,0-.013-.005-.02l-.007-.019-.007-.019-.008-.017-.009-.019-.009-.016-.011-.019-.012-.016-.012-.016-.023-.025,0,0-1.641-1.641,0,0-.025-.023-.015-.011-.018-.013-.017-.01-.017-.01-.017-.008-.019-.009-.017-.006-.021-.007-.017,0L19,22.211l-.018,0-.021,0-.03,0H9.073l-.035,0-.02,0-.019,0-.022.005-.017,0-.021.007-.017.006-.019.009-.017.008-.019.011-.016.01-.02.015-.012.009-.031.028-1.64,1.64a.405.405,0,0,0-.028.031l-.01.013-.014.019-.01.017-.01.017-.009.018-.008.018-.007.019c0,.006,0,.013-.007.019s0,.013,0,.019,0,.013,0,.02,0,.015,0,.022,0,.011,0,.017,0,.027,0,.041V27.18H4.566V25.567a.41.41,0,0,0-.82,0v2.02s0,0,0,0a.411.411,0,0,0,.41.41H23.844a.41.41,0,0,0,.41-.41V21.739A3.148,3.148,0,0,0,21.11,18.594ZM7.848,6.973a6.152,6.152,0,1,1,12.3,0v1.1l-.125-.05A16.723,16.723,0,0,0,14,7.109a16.723,16.723,0,0,0-6.028.917l-.125.05v-1.1Zm.618,1.745A16.441,16.441,0,0,1,14,7.93a16.441,16.441,0,0,1,5.535.788,5.983,5.983,0,0,1,1.215.58H7.25A5.994,5.994,0,0,1,8.465,8.717ZM13.59,19.231l-1.7.425-1.307-.871V17.424a6.924,6.924,0,0,0,3.008.885Zm3.828-.446-1.307.871-1.7-.425v-.923a6.924,6.924,0,0,0,3.008-.885v1.361ZM14.083,17.5a.415.415,0,0,0-.166,0,6.159,6.159,0,0,1-6.069-6.151V10.117h12.3v1.231A6.159,6.159,0,0,1,14.083,17.5ZM9.248,23.023h9.5l.82.82H8.428Zm10.9,4.157H7.848V24.664h12.3v2.516Z"/>
      <path id="Path_26" data-name="Path 26" class="cls-3" d="M14,2.734a1.5,1.5,0,1,0,1.5,1.5A1.506,1.506,0,0,0,14,2.734Zm0,2.187a.684.684,0,1,1,.684-.684A.684.684,0,0,1,14,4.922Z"/>
    </g>
  </g>
</svg>
