<svg xmlns="http://www.w3.org/2000/svg" xmlns:xlink="http://www.w3.org/1999/xlink" viewBox="0 0 28 28">
  <defs>
    <style>
      .cls-1 {
        fill: #edf2f5;
      }

      .cls-2 {
        clip-path: url(#clip-path);
      }

      .cls-3 {
        fill: #888e9b;
      }

      .cls-4 {
        fill: #8893aa;
      }
    </style>
    <clipPath id="clip-path">
      <rect id="Rectangle_27" data-name="Rectangle 27" class="cls-1" width="28" height="28" transform="translate(63 196)"/>
    </clipPath>
  </defs>
  <g id="Mask_Group_10" data-name="Mask Group 10" class="cls-2" transform="translate(-63 -196)">
    <g id="dish" transform="translate(63 200.421)">
      <path id="Path_22" data-name="Path 22" class="cls-3" d="M27.894,18.725a.943.943,0,0,0-.842-.514h-.538A12.792,12.792,0,0,0,16.19,6.166a2.271,2.271,0,0,0,.021-.236,2.456,2.456,0,0,0-4.912,0,2.134,2.134,0,0,0,.021.236A12.791,12.791,0,0,0,.995,18.211H.948a.947.947,0,0,0-.771,1.5l1.11,1.554a3.274,3.274,0,0,0,2.659,1.369H24.054a3.274,3.274,0,0,0,2.659-1.369l1.111-1.554A.945.945,0,0,0,27.894,18.725ZM12.284,6.014c0-.028,0-.057,0-.084a1.474,1.474,0,0,1,2.947,0c0,.028,0,.056,0,.084l-.069-.006c-.169-.019-.339-.032-.51-.044-.063,0-.125-.011-.188-.014-.234-.013-.468-.021-.7-.021s-.471.007-.7.02c-.063,0-.125.01-.188.014-.171.012-.341.026-.51.044Zm-.295,1.03c.263-.039.528-.068.793-.089l.162-.012a12.055,12.055,0,0,1,1.621,0l.162.012c.265.022.53.05.793.089A11.81,11.81,0,0,1,25.534,18.211H1.975A11.811,11.811,0,0,1,11.989,7.045ZM25.913,20.692a2.291,2.291,0,0,1-1.86.957H3.947a2.292,2.292,0,0,1-1.86-.957l-1.071-1.5H26.984Z" transform="translate(0 -3.474)"/>
      <path id="Path_23" data-name="Path 23" class="cls-3" d="M11.4,6.948a10.891,10.891,0,0,0-2.387.264.491.491,0,0,0,.108.97.514.514,0,0,0,.109-.012A9.893,9.893,0,0,1,11.4,7.93H11.4a.491.491,0,0,0,.491-.491A.484.484,0,0,0,11.4,6.948Z" transform="translate(2.352 -2.526)"/>
      <path id="Path_24" data-name="Path 24" class="cls-4" d="M7.688,8.081a10.826,10.826,0,0,0-4.978,7.33.491.491,0,0,0,.4.571.449.449,0,0,0,.088.008.491.491,0,0,0,.483-.4A9.831,9.831,0,0,1,8.189,8.927a.491.491,0,1,0-.5-.845Z" transform="translate(0.737 -2.236)"/>
    </g>
  </g>
</svg>
