<?xml version="1.0"?>
<svg xmlns="http://www.w3.org/2000/svg" height="512px" viewBox="0 0 469 469.30976" width="512px" class=""><g><path d="m457.011719 144.824219c15.972656 15.976562 15.972656 41.875 0 57.851562l-254.65625 254.648438c-15.972657 15.980469-41.871094 15.980469-57.84375 0l-24.667969-24.667969c21.5-25.835938 19.761719-63.800781-4.003906-87.566406-23.765625-23.769532-61.730469-25.503906-87.566406-4.003906l-16.140626-16.140626c-15.953124-15.953124-15.972656-41.808593-.050781-57.789062l254.191407-255.121094c.011718-.019531.03125-.03125.050781-.050781 15.96875-15.980469 41.871093-15.980469 57.839843 0l21.179688 21.179687c-17.171875 25.75-14.878906 60.089844 8.019531 82.992188 22.136719 22.28125 57 25.644531 82.992188 8.007812zm0 0" fill="#00efd1" data-original="#00EFD1" class="" style="fill:#2484CF" data-old_color="#2484cf"/><path d="m394.921875 210.683594-144.5 144.5-136.636719-136.640625-.03125-.027344 144.5-144.5zm0 0" fill="#00acea" data-original="#00ACEA" class="active-path" style="fill:#00ACEA" data-old_color="#6F6DFF"/><path d="m277.875 212.363281 20.320312 27.230469-33.972656-.4375-19.609375 27.738281-10.089843-32.441406-32.429688-10.078125 27.730469-19.621094-.429688-33.960937 27.21875 20.3125 32.171875-10.910157zm0 0" fill="#fedb41" data-original="#FEDB41" class=""/><path d="m250.421875 355.183594-40.046875 40.050781-136.671875-136.667969 40.050781-40.050781.03125.027344zm0 0" fill="#f4b844" data-original="#F4B844" class="" style="fill:#F4B844"/></g> </svg>
