<svg xmlns="http://www.w3.org/2000/svg" width="79" height="85.177" viewBox="0 0 79 85.177">
  <g id="gift-box" transform="translate(-0.013 0.001)">
    <g id="Group_107" data-name="Group 107" transform="translate(1.423 21.694)">
      <path id="Path_195" data-name="Path 195" d="M58.816,203.027h-26.8v42.321a5.643,5.643,0,0,0,5.643,5.643H61.637V203.027Zm0,0" transform="translate(-27.78 -188.92)" fill="#b4b4b4"/>
      <path id="Path_196" data-name="Path 196" d="M277.637,245.348V203.027H248.012v47.964h23.982A5.643,5.643,0,0,0,277.637,245.348Zm0,0" transform="translate(-205.691 -188.92)" fill="#b4b4b4"/>
      <path id="Path_197" data-name="Path 197" d="M39.048,123.027H8.012v14.107H39.048Zm0,0" transform="translate(-8.012 -123.027)" fill="#b4b4b4"/>
      <path id="Path_198" data-name="Path 198" d="M264.012,137.134h31.036V123.027H264.012Zm0,0" transform="translate(-218.869 -123.027)" fill="#b4b4b4"/>
    </g>
    <path id="Path_199" data-name="Path 199" d="M137.125,45.78a1.411,1.411,0,0,0,1.353-1.812,24.866,24.866,0,0,0-5.123-9.357A7.853,7.853,0,0,0,125.9,32.33a1.41,1.41,0,0,0-.814.814,3.535,3.535,0,0,0-.172.65,5.4,5.4,0,0,0-.071.8v.023a8.516,8.516,0,0,0,2.522,5.985,24.877,24.877,0,0,0,9.353,5.12,1.479,1.479,0,0,0,.406.062Zm-7.759-7.18a5.83,5.83,0,0,1-1.292-1.968v-.014c-.062-.156-.116-.313-.162-.464-.024-.082-.041-.159-.062-.24s-.04-.141-.054-.211-.017-.1-.027-.149a5.375,5.375,0,0,1-.086-.638,5.831,5.831,0,0,1,3.685,1.693,19.17,19.17,0,0,1,3.345,5.348A19.168,19.168,0,0,1,129.36,38.6Zm0,0" transform="translate(-102.818 -26.47)"/>
    <path id="Path_200" data-name="Path 200" d="M77.6,20.283H55.826a19.746,19.746,0,0,0,2.642-2.163c5.046-5.061,5.212-12.736,1.988-15.959S49.561-.9,44.494,4.151A27.679,27.679,0,0,0,39.513,11.8a27.644,27.644,0,0,0-4.985-7.649C29.466-.9,21.793-1.064,18.568,2.159s-3.058,10.9,1.989,15.961A19.833,19.833,0,0,0,23.2,20.283H1.423A1.411,1.411,0,0,0,.013,21.694V35.8a1.411,1.411,0,0,0,1.411,1.411H4.245V78.122A7.063,7.063,0,0,0,11.3,85.176H67.727a7.062,7.062,0,0,0,7.054-7.054V37.212H77.6A1.411,1.411,0,0,0,79.013,35.8V21.694A1.411,1.411,0,0,0,77.6,20.283ZM46.49,6.145c4.054-4.042,9.968-4,11.972-1.991s2.053,7.915-1.989,11.971a23.624,23.624,0,0,1-6.259,4.158h-8.43v-.092c0-.322-.024-.647-.055-.975-.012-.108-.024-.216-.037-.326q-.049-.406-.121-.809c-.015-.094-.031-.189-.048-.282-.068-.351-.141-.7-.226-1.031-.011-.048-.024-.09-.035-.141-.075-.292-.152-.564-.231-.846-.011-.039-.021-.081-.032-.119A26.9,26.9,0,0,1,46.49,6.145ZM45.155,34.39H33.87V23.1H45.155Zm-22.6-18.263c-4.043-4.056-4-9.967-1.99-11.972S28.478,2.1,32.531,6.141a27.1,27.1,0,0,1,5.643,9.944c.159.5.282.971.4,1.432.032.132.059.26.087.391.076.344.138.673.184.988.015.107.035.217.048.321a9.117,9.117,0,0,1,.072,1.061H28.811a23.644,23.644,0,0,1-6.258-4.151ZM2.834,23.1H31.048V34.39H2.834ZM7.066,78.122V37.212h26.8V82.355H11.3a4.232,4.232,0,0,1-4.232-4.232Zm29.625,4.232V37.212h5.643V82.355Zm35.268-4.232a4.232,4.232,0,0,1-4.232,4.232H45.155V37.212h26.8ZM76.191,34.39H47.977V23.1H76.191Zm0,0"/>
    <path id="Path_201" data-name="Path 201" d="M246.918,45.832a1.411,1.411,0,0,0,.4-.058,24.785,24.785,0,0,0,9.36-5.13,7.985,7.985,0,0,0,2.286-7.459,1.4,1.4,0,0,0-.811-.811,7.985,7.985,0,0,0-7.459,2.286,24.8,24.8,0,0,0-5.13,9.36,1.411,1.411,0,0,0,1.353,1.812Zm5.772-9.177a5.851,5.851,0,0,1,3.687-1.693,5.845,5.845,0,0,1-1.692,3.689,19.07,19.07,0,0,1-5.361,3.364,19.058,19.058,0,0,1,3.366-5.359Zm0,0" transform="translate(-202.204 -26.518)"/>
  </g>
</svg>
