<svg xmlns="http://www.w3.org/2000/svg" xmlns:xlink="http://www.w3.org/1999/xlink" width="45" height="45.498" viewBox="0 0 45 45.498">
  <defs>
    <linearGradient id="linear-gradient" x1="0.146" y1="0.847" x2="0.768" y2="0.092" gradientUnits="objectBoundingBox">
      <stop offset="0" stop-color="#42e695"/>
      <stop offset="1" stop-color="#3bb2b8"/>
    </linearGradient>
  </defs>
  <g id="Group_152" data-name="Group 152" transform="translate(-326 -576.502)">
    <circle id="Ellipse_27" data-name="Ellipse 27" cx="22.5" cy="22.5" r="22.5" transform="translate(326 577)" fill="url(#linear-gradient)"/>
    <g id="boy" transform="translate(260.892 576.501)">
      <g id="Group_153" data-name="Group 153" transform="translate(73.649 0)">
        <path id="Path_220" data-name="Path 220" d="M89.553,17.069S88,10.719,88,8.534c0-4.687,3.879-4.655,3.879-4.655h0C94.192.016,102.742,0,102.742,0l.776,1.552A44.948,44.948,0,0,1,113.6,0a10.589,10.589,0,0,1,1.552,3.879c.9,4.823-.776,13.189-.776,13.189Z" transform="translate(-88.001)" fill="#734a3e"/>
      </g>
      <g id="Group_154" data-name="Group 154" transform="translate(73.649 0)">
        <path id="Path_221" data-name="Path 221" d="M102.742,0S94.159,0,91.881,3.879h0S88,3.847,88,8.534c0,2.185,1.552,8.534,1.552,8.534H94.56l5.078-6.983A64.4,64.4,0,0,0,113.6,0a44.948,44.948,0,0,0-10.086,1.552Z" transform="translate(-88.001)" fill="#623f33"/>
      </g>
      <path id="Path_222" data-name="Path 222" d="M103.119,41.011l-.07-.634a.457.457,0,0,0-.5-.4l-.039,0-.681-5.452a3.1,3.1,0,0,0-2.1-2.559l-4.462-1.487.111-.222-1.682-1.121a.776.776,0,0,0-1.076.215l-.237.356a1.548,1.548,0,0,1-.108-.568v-2.5l3.342-1.392a4.655,4.655,0,0,0,2.865-4.3v-.776a2.327,2.327,0,0,0,1.7-3.914c.391-2.215,1.36-8.464.626-12.378A10.589,10.589,0,0,0,99.253,0,44.948,44.948,0,0,0,89.167,1.552L88.391,0S79.808,0,77.53,3.879h-.068l-.062,0-.038,0-.138.013-.111.015-.124.02-.136.026a3.838,3.838,0,0,0-3.074,3.2q-.018.087-.033.177-.046.27-.071.569t-.025.629c0,.171.01.367.027.583s.043.453.075.706q.01.076.02.153c.152,1.136.424,2.551.69,3.818l.036.172c.181.854.357,1.629.487,2.192l.032.137a2.327,2.327,0,0,0,1.736,3.878v.776a4.655,4.655,0,0,0,2.865,4.3l3.342,1.393v2.5a1.547,1.547,0,0,1-.108.568l-.237-.356a.776.776,0,0,0-1.076-.215l-1.682,1.121.111.222-4.462,1.487a3.1,3.1,0,0,0-2.1,2.559l-.681,5.452-.039,0a.457.457,0,0,0-.5.4l-.07.634a.457.457,0,0,0,.4.5l1.135.126v1.806A1.552,1.552,0,0,0,75.2,45h24.827a1.552,1.552,0,0,0,1.552-1.552V41.641l1.135-.126A.457.457,0,0,0,103.119,41.011Z" transform="translate(-0.001)" fill="#f6b47b"/>
      <path id="Path_223" data-name="Path 223" d="M107.044,316.605a3.1,3.1,0,0,0-2.1-2.559l-5.019-1.673c-.731,1.648-4.764,3.067-4.764,3.067l-1.552,1.552c0,.006-1.43,0-1.552,0l-1.552-1.552s-4.033-1.419-4.764-3.067l-5.019,1.673a3.1,3.1,0,0,0-2.1,2.559l-.738,5.9,6.411.69v3.879H101.37V323.2h6.5Z" transform="translate(-5.221 -282.079)" fill="#ff4f4f"/>
      <g id="Group_155" data-name="Group 155" transform="translate(73.649 0)">
        <path id="Path_224" data-name="Path 224" d="M89.553,17.069S88,10.719,88,8.534c0-4.687,3.879-4.655,3.879-4.655h0C94.127.065,102.742,0,102.742,0l.776,1.552A44.948,44.948,0,0,1,113.6,0a10.589,10.589,0,0,1,1.552,3.879c.9,4.823-.776,13.189-.776,13.189Z" transform="translate(-88.001 0)" fill="#734a3e"/>
      </g>
      <g id="Group_156" data-name="Group 156" transform="translate(73.649 0)">
        <path id="Path_225" data-name="Path 225" d="M102.742,0S94.159,0,91.881,3.879h0S88,3.847,88,8.534c0,2.185,1.552,8.534,1.552,8.534H94.56l5.078-6.983A64.4,64.4,0,0,0,113.6,0a44.948,44.948,0,0,0-10.086,1.552Z" transform="translate(-88.001)" fill="#623f33"/>
      </g>
      <g id="Group_157" data-name="Group 157" transform="translate(82.182 26.573)">
        <path id="Path_226" data-name="Path 226" d="M186.072,274h-9.31v2.567a1.538,1.538,0,0,1-.777,1.325A10.536,10.536,0,0,0,186.072,274Z" transform="translate(-175.984 -274.001)" fill="#e2a071"/>
      </g>
      <path id="Path_227" data-name="Path 227" d="M120.052,109.431v-1.552A3.879,3.879,0,0,0,116.173,104H102.208a3.879,3.879,0,0,0-3.879,3.879v1.552a2.328,2.328,0,1,0,0,4.655v.776a4.655,4.655,0,0,0,2.865,4.3l5.013,2.089a7.758,7.758,0,0,0,2.984.6h0a7.759,7.759,0,0,0,2.984-.6l5.013-2.089a4.655,4.655,0,0,0,2.865-4.3v-.776a2.328,2.328,0,1,0,0-4.655Z" transform="translate(-21.576 -93.914)" fill="#fdc88e"/>
      <g id="Group_158" data-name="Group 158" transform="translate(81.408 16.293)">
        <path id="Path_228" data-name="Path 228" d="M168.777,170.328h0a.778.778,0,0,1-.776-.776v-.776a.778.778,0,0,1,.776-.776h0a.778.778,0,0,1,.776.776v.776A.778.778,0,0,1,168.777,170.328Z" transform="translate(-168.001 -168)" fill="#623f33"/>
      </g>
      <g id="Group_159" data-name="Group 159" transform="translate(92.269 16.293)">
        <path id="Path_229" data-name="Path 229" d="M280.777,170.328h0a.778.778,0,0,1-.776-.776v-.776a.778.778,0,0,1,.776-.776h0a.778.778,0,0,1,.776.776v.776A.778.778,0,0,1,280.777,170.328Z" transform="translate(-280.001 -168)" fill="#623f33"/>
      </g>
      <g id="Group_161" data-name="Group 161" transform="translate(83.735 21.723)">
        <g id="Group_160" data-name="Group 160" transform="translate(0)">
          <path id="Path_230" data-name="Path 230" d="M195.879,226.347a6.462,6.462,0,0,1-3.54-.932.776.776,0,1,1,.873-1.283,5.7,5.7,0,0,0,5.334,0,.776.776,0,1,1,.873,1.283A6.462,6.462,0,0,1,195.879,226.347Z" transform="translate(-192 -223.998)" fill="#e2a071"/>
        </g>
      </g>
      <g id="Group_162" data-name="Group 162" transform="translate(72.596 32.99)">
        <path id="Path_231" data-name="Path 231" d="M83.628,348.884v-1.756a3.1,3.1,0,0,0-.758-2.032L78.6,340.168a3.1,3.1,0,0,0-.647,1.536l-.81,6.483C78.378,348.261,81.66,348.646,83.628,348.884Z" transform="translate(-77.144 -340.168)" fill="#f23f44"/>
      </g>
      <g id="Group_163" data-name="Group 163" transform="translate(72.108 39.971)">
        <path id="Path_232" data-name="Path 232" d="M79.08,412.865l-6.395-.71a.457.457,0,0,0-.5.4l-.07.634a.457.457,0,0,0,.4.5l6.566.73Z" transform="translate(-72.108 -412.152)" fill="#d6343a"/>
      </g>
      <g id="Group_164" data-name="Group 164" transform="translate(96.149 32.99)">
        <path id="Path_233" data-name="Path 233" d="M320,348.884v-1.756a3.1,3.1,0,0,1,.758-2.032l4.269-4.928a3.1,3.1,0,0,1,.647,1.536l.81,6.483C325.251,348.261,321.969,348.646,320,348.884Z" transform="translate(-320.001 -340.168)" fill="#f23f44"/>
      </g>
      <g id="Group_165" data-name="Group 165" transform="translate(96.149 39.971)">
        <path id="Path_234" data-name="Path 234" d="M320,412.865l6.395-.71a.457.457,0,0,1,.5.4l.07.634a.457.457,0,0,1-.4.5l-6.566.73Z" transform="translate(-320.001 -412.152)" fill="#d6343a"/>
      </g>
      <g id="Group_166" data-name="Group 166" transform="translate(79.856 29.006)">
        <path id="Path_235" data-name="Path 235" d="M154.759,299.439l2.673,4.009-2.328,3.1-3.1-6.207,1.682-1.121A.776.776,0,0,1,154.759,299.439Z" transform="translate(-152.001 -299.093)" fill="#f23f44"/>
      </g>
      <g id="Group_167" data-name="Group 167" transform="translate(89.942 29.006)">
        <path id="Path_236" data-name="Path 236" d="M258.674,299.439,256,303.448l2.328,3.1,3.1-6.207-1.682-1.121A.776.776,0,0,0,258.674,299.439Z" transform="translate(-256.001 -299.093)" fill="#f23f44"/>
      </g>
      <g id="Group_168" data-name="Group 168" transform="translate(86.838 34.913)">
        <path id="Path_237" data-name="Path 237" d="M224.777,366.207h0a.776.776,0,0,1-.776-.776V360h1.552v5.431A.776.776,0,0,1,224.777,366.207Z" transform="translate(-224.001 -360)" fill="#f23f44"/>
      </g>
      <path id="Path_238" data-name="Path 238" d="M102.4,117.549a3.637,3.637,0,0,1-.969-2.485v-8.9c2.726-.3,8.664-1.024,14.741-2.163H102.208a3.647,3.647,0,0,0-.776.085v-.007a3.88,3.88,0,0,0-3.1,3.8v1.552a2.328,2.328,0,1,0,0,4.655v.776a4.655,4.655,0,0,0,2.865,4.3l5.013,2.089a7.769,7.769,0,0,0,.749.267A32.379,32.379,0,0,1,102.4,117.549Z" transform="translate(-21.576 -93.913)" fill="#f6b47b"/>
    </g>
  </g>
</svg>
