<?xml version="1.0" encoding="iso-8859-1"?>
<!-- Generator: Adobe Illustrator 19.0.0, SVG Export Plug-In . SVG Version: 6.00 Build 0)  -->
<svg xmlns="http://www.w3.org/2000/svg" xmlns:xlink="http://www.w3.org/1999/xlink" version="1.1" id="Capa_1" x="0px" y="0px" viewBox="0 0 480.04 480.04" style="enable-background:new 0 0 480.04 480.04;" xml:space="preserve" width="512px" height="512px">
<g>
	<g>
		<path d="M120.002,196.02c-22.091,0-40,17.909-40,40c0.026,22.081,17.919,39.974,40,40c22.091,0,40-17.909,40-40    S142.093,196.02,120.002,196.02z M120.002,260.02c-13.255,0-24-10.745-24-24c0.014-13.249,10.751-23.986,24-24    c13.255,0,24,10.745,24,24S133.256,260.02,120.002,260.02z" fill="#6f6dff"/>
	</g>
</g>
<g>
	<g>
		<path d="M480.002,159.45c0.879-18.596-13.411-34.417-32-35.43h-128v-80c1.021-20.957-15.051-38.815-36-40    c-20.949,1.185-37.021,19.043-36,40v96h-104v0.152c-3.723,0.162-7.263,1.661-9.969,4.223l-13.711,13.883l-14.414-13.891    c-3.976-3.941-9.81-5.352-15.148-3.664c-5.49,1.797-9.561,6.446-10.617,12.125l-3.852,20.18l-19.453-2.352    c-5.548-0.698-11.036,1.676-14.328,6.195c-3.49,4.704-4.193,10.916-1.844,16.281l8.203,18.906l-17.07,10.063    c-7.676,4.625-10.149,14.598-5.523,22.274c1.364,2.263,3.26,4.159,5.523,5.523l17.016,10.328l-8.148,18.625    c-2.351,5.363-1.653,11.573,1.828,16.281c3.293,4.524,8.782,6.905,14.336,6.219l5.116-0.641L0.9,418.301    c-2.034,3.922-0.504,8.751,3.418,10.785c2.829,1.467,6.258,1.116,8.73-0.894L40.08,406.2l0.289,61.859    c0.016,3.774,2.671,7.023,6.367,7.789c0.537,0.115,1.084,0.172,1.633,0.172c3.167-0.003,6.036-1.871,7.32-4.766L120.586,324.5    l64.103,144.677c1.789,4.039,6.514,5.863,10.553,4.074c2.895-1.282,4.761-4.151,4.76-7.317v-58.602l26.773,23.094    c3.343,2.887,8.393,2.518,11.28-0.824c2.089-2.418,2.538-5.848,1.142-8.723l-43.161-88.859h219.966    c18.589-1.012,32.879-16.834,32-35.43c0.003-4.687-0.855-9.334-2.531-13.711c11.63-6.408,18.761-18.723,18.531-32    c0.026-6.199-1.469-12.309-4.352-17.797c8.002-7.053,12.515-17.256,12.352-27.922c0.027-6.196-1.468-12.304-4.352-17.789    C475.651,180.317,480.164,170.115,480.002,159.45z M56.197,430.551l-0.195-41.156c-0.018-4.416-3.612-7.98-8.028-7.962    c-1.829,0.008-3.601,0.642-5.019,1.798l-10.07,8.187l44.36-85.426l2.507,13.067c1.068,5.741,5.194,10.437,10.75,12.234    c3.182,0.976,6.596,0.878,9.717-0.279L56.197,430.551z M119.97,297.879L119.97,297.879c-4.018-0.001-7.878,1.566-10.758,4.367    L95.47,316.043l-3.852-20.078c-1.532-8.118-9.034-13.703-17.25-12.844l-19.047,2.172l8.149-18.641    c3.316-7.475,0.537-16.249-6.477-20.453l-17.07-10.297l17.078-10.063c7.009-4.208,9.783-12.98,6.469-20.453l-8.563-18.828    l19.453,2.352c8.185,0.937,15.703-4.607,17.227-12.703l4.102-19.445l13.523,13.031c5.994,5.82,15.529,5.82,21.523,0l13.719-13.773    h0.028l3.847,20.055c1.536,8.115,9.035,13.698,17.25,12.844l19.047-2.172l-8.148,18.641c-3.315,7.475-0.537,16.249,6.477,20.453    l16.992,10.344l-17,10.016c-7.007,4.21-9.783,12.978-6.477,20.453l8.57,18.828l-19.453-2.352    c-8.223-0.89-15.744,4.704-17.258,12.836l-3.188,20.164l-14.414-13.891C127.844,299.444,123.986,297.881,119.97,297.879z     M207.861,392.989l-10.633-9.172c-3.345-2.887-8.397-2.515-11.283,0.83c-1.253,1.452-1.943,3.306-1.943,5.225v38.258    L141.2,331.531c2.715,0.715,5.578,0.632,8.247-0.238c5.556-1.797,9.682-6.493,10.75-12.234l3.084-17.863L207.861,392.989z     M248.002,316.02h-59.737l-7.241-14.909l2.088,0.253c5.545,0.682,11.026-1.688,14.328-6.195    c3.486-4.705,4.189-10.916,1.844-16.281l-8.203-18.906l17.07-10.063c7.676-4.625,10.149-14.598,5.523-22.274    c-1.364-2.263-3.26-4.159-5.523-5.523l-17.016-10.328l8.148-18.633c2.348-5.364,1.648-11.575-1.836-16.281    c-3.291-4.522-8.778-6.901-14.328-6.211l-19.07,2.391l-3.268-17.039h87.222V316.02z M453.158,177.739    c-4.071,1.717-5.979,6.408-4.263,10.479c0.371,0.88,0.896,1.686,1.552,2.381c3.624,3.979,5.608,9.181,5.555,14.563    c0.31,7.698-3.934,14.858-10.836,18.281c-4.074,1.715-5.987,6.408-4.272,10.482c0.371,0.881,0.897,1.689,1.553,2.385    c3.651,3.965,5.639,9.181,5.555,14.57c0.679,9.314-5.796,17.632-14.992,19.258c-4.404,0.345-7.694,4.195-7.349,8.599    c0.126,1.603,0.732,3.132,1.739,4.385c3.016,3.838,4.639,8.588,4.601,13.469c0.839,9.75-6.27,18.383-16,19.43h-152v-272    c-0.988-12.114,7.907-22.787,20-24c12.093,1.213,20.988,11.886,20,24v88c-0.003,4.416,3.575,7.997,7.991,8    c0.003,0,0.006,0,0.009,0h136c9.73,1.047,16.839,9.679,16,19.43C464.308,167.151,460.061,174.313,453.158,177.739z" fill="#6f6dff"/>
	</g>
</g>
<g>
</g>
<g>
</g>
<g>
</g>
<g>
</g>
<g>
</g>
<g>
</g>
<g>
</g>
<g>
</g>
<g>
</g>
<g>
</g>
<g>
</g>
<g>
</g>
<g>
</g>
<g>
</g>
<g>
</g>
</svg>
