<?xml version="1.0" encoding="iso-8859-1"?>
<!-- Generator: Adobe Illustrator 19.0.0, SVG Export Plug-In . SVG Version: 6.00 Build 0)  -->
<svg xmlns="http://www.w3.org/2000/svg" xmlns:xlink="http://www.w3.org/1999/xlink" version="1.1" id="Capa_1" x="0px" y="0px" viewBox="0 0 512.002 512.002" style="enable-background:new 0 0 512.002 512.002;" xml:space="preserve" width="512px" height="512px">
<g>
	<g>
		<path d="M386.007,340.009h-52.504v-31.332c30.378-23.326,50.001-59.997,50.001-101.17v-22.504h12.5c4.143,0,7.5-3.357,7.5-7.5    c0-7.325-7.232-15.336-20-22.637v-27.363C383.504,57.197,326.307,0,256.001,0S128.499,57.197,128.499,127.502v27.363    c-12.768,7.301-20,15.312-20,22.637c0,4.143,3.357,7.5,7.5,7.5h12.5v22.504c0,41.174,19.623,77.844,50.002,101.171v31.331h-52.505    c-31.707,0-57.501,25.794-57.501,57.501c0,0.02,0.003,0.038,0.003,0.059v39.941c0,4.14,3.359,7.5,7.5,7.5c4.13,0,7.5-3.36,7.5-7.5    v-40.001c0-0.013-0.002-0.025-0.002-0.038c0.021-23.416,19.078-42.461,42.5-42.461h57.734l28.109,18.74    c0.108,0.072,0.225,0.123,0.335,0.188c0.148,0.089,0.295,0.176,0.448,0.253c0.212,0.107,0.427,0.197,0.645,0.283    c0.143,0.056,0.281,0.115,0.428,0.163c0.248,0.08,0.498,0.138,0.75,0.191c0.129,0.027,0.255,0.064,0.386,0.085    c0.362,0.057,0.726,0.088,1.089,0.092c0.025,0,0.049,0.006,0.074,0.006c0.405,0,0.814-0.046,1.226-0.114    c0.195-0.032,0.391-0.061,0.583-0.108c0.006-0.001,0.011-0.002,0.017-0.003l38.182-9.545l38.183,9.545    c0.006,0.001,0.012,0.002,0.017,0.003c0.197,0.049,0.397,0.078,0.599,0.111c0.405,0.066,0.81,0.111,1.21,0.111    c0.025,0,0.05-0.006,0.074-0.006c0.363-0.004,0.727-0.035,1.089-0.092c0.131-0.021,0.257-0.058,0.386-0.085    c0.252-0.054,0.503-0.111,0.75-0.191c0.146-0.048,0.285-0.107,0.428-0.163c0.218-0.086,0.433-0.176,0.645-0.283    c0.153-0.077,0.301-0.164,0.448-0.253c0.111-0.065,0.227-0.116,0.335-0.188l28.109-18.74h57.733    c23.435,0,42.501,19.065,42.501,42.501v99.488h-45.003v-53.5c0-0.249-0.013-0.499-0.037-0.747c-0.011-0.102-0.03-0.2-0.044-0.301    c-0.019-0.142-0.037-0.284-0.064-0.425c-0.023-0.12-0.057-0.235-0.086-0.353c-0.03-0.12-0.057-0.239-0.093-0.358    c-0.035-0.116-0.079-0.229-0.12-0.344c-0.041-0.116-0.08-0.233-0.127-0.348c-0.045-0.107-0.098-0.211-0.147-0.315    c-0.055-0.117-0.107-0.235-0.169-0.351c-0.053-0.099-0.113-0.192-0.171-0.289c-0.067-0.113-0.133-0.229-0.207-0.34    c-0.068-0.104-0.146-0.201-0.221-0.301c-0.071-0.097-0.139-0.195-0.216-0.289c-0.131-0.16-0.271-0.311-0.416-0.46    c-0.027-0.028-0.051-0.06-0.079-0.088l-30-30c-0.026-0.026-0.056-0.049-0.083-0.075c-0.15-0.145-0.304-0.288-0.466-0.421    c-0.088-0.071-0.18-0.134-0.27-0.201c-0.106-0.08-0.211-0.162-0.321-0.236c-0.104-0.069-0.211-0.129-0.316-0.192    c-0.104-0.063-0.207-0.128-0.314-0.186c-0.104-0.056-0.213-0.103-0.319-0.154c-0.115-0.055-0.229-0.111-0.348-0.161    c-0.102-0.042-0.205-0.075-0.308-0.112c-0.128-0.046-0.255-0.095-0.386-0.135c-0.1-0.03-0.201-0.052-0.303-0.078    c-0.136-0.034-0.27-0.072-0.409-0.1c-0.111-0.021-0.223-0.034-0.334-0.051c-0.131-0.02-0.26-0.044-0.392-0.057    c-0.185-0.018-0.37-0.023-0.557-0.028c-0.06-0.001-0.118-0.009-0.178-0.009H165.999c-0.031,0-0.062,0.004-0.093,0.005    c-0.215,0.003-0.43,0.011-0.645,0.032c-0.124,0.012-0.245,0.035-0.368,0.053c-0.118,0.018-0.238,0.031-0.356,0.055    c-0.136,0.027-0.268,0.064-0.401,0.098c-0.104,0.027-0.208,0.049-0.31,0.08c-0.131,0.04-0.258,0.088-0.386,0.135    c-0.102,0.037-0.206,0.07-0.307,0.112c-0.122,0.051-0.238,0.109-0.356,0.166c-0.104,0.049-0.208,0.095-0.309,0.148    c-0.116,0.062-0.228,0.133-0.34,0.2c-0.097,0.059-0.195,0.113-0.29,0.177c-0.128,0.085-0.249,0.18-0.372,0.273    c-0.072,0.055-0.148,0.104-0.218,0.163c-0.194,0.159-0.381,0.327-0.559,0.505l-29.988,29.99c-0.178,0.178-0.346,0.363-0.505,0.558    c-0.064,0.078-0.119,0.161-0.18,0.241c-0.087,0.114-0.176,0.228-0.256,0.348c-0.068,0.103-0.128,0.209-0.19,0.315    c-0.063,0.103-0.129,0.206-0.186,0.314c-0.059,0.109-0.108,0.223-0.161,0.336c-0.052,0.108-0.106,0.216-0.152,0.327    c-0.046,0.112-0.084,0.227-0.125,0.341c-0.042,0.116-0.087,0.232-0.122,0.352c-0.035,0.115-0.061,0.232-0.09,0.35    c-0.031,0.12-0.064,0.238-0.089,0.361c-0.027,0.136-0.043,0.273-0.063,0.41c-0.015,0.105-0.035,0.209-0.046,0.315    c-0.024,0.247-0.037,0.495-0.037,0.744v53.502H83.498V467.51c0-4.13-3.37-7.5-7.5-7.5c-4.141,0-7.5,3.37-7.5,7.5v36.931    c0,0.02-0.003,0.039-0.003,0.059c0,3.4,2.263,6.268,5.364,7.188c0.678,0.202,1.395,0.314,2.139,0.314    c0.013,0,0.025-0.002,0.038-0.002h359.933c0.014,0,0.026,0.002,0.039,0.002c4.143,0,7.5-3.357,7.5-7.5V397.51    C443.507,365.804,417.713,340.009,386.007,340.009z M143.5,127.502C143.5,65.469,193.969,15,256.001,15    s112.502,50.469,112.502,112.502v20.168c-0.75-0.306-1.51-0.608-2.281-0.908c-19.661-7.646-54.743-16.76-110.221-16.76    s-90.559,9.114-110.221,16.76c-0.771,0.3-1.531,0.603-2.281,0.908V127.502z M154.793,159.404    c18.231-6.57,50.59-14.402,101.209-14.402s82.977,7.832,101.209,14.402c9.877,3.559,17.159,7.321,22.221,10.598h-246.86    C137.633,166.727,144.916,162.965,154.793,159.404z M248.501,351.652l-31.102,7.775l-23.898-15.933v-24.889    c16.43,9.279,35.109,15.017,55,16.177V351.652z M318.502,343.495l-23.898,15.933l-31.102-7.775v-16.87    c19.891-1.16,38.571-6.9,55.001-16.179V343.495z M257.522,319.989c-0.491-0.101-1-0.154-1.521-0.154    c-0.52,0-1.029,0.054-1.52,0.154C193.147,319.172,143.5,269.033,143.5,207.507v-22.504h225.004v22.504    C368.503,269.033,318.856,319.172,257.522,319.989z M169.106,420.993h173.791l15,15H154.106L169.106,420.993z M368.504,496.998    H143.5v-46.005h225.005V496.998z" fill="#6f6dff"/>
	</g>
</g>
<g>
	<g>
		<path d="M256.001,49.999c-15.163,0-27.5,12.337-27.5,27.5c0,15.163,12.337,27.5,27.5,27.5c15.163,0,27.5-12.337,27.5-27.5    C283.502,62.336,271.165,49.999,256.001,49.999z M256.001,89.999c-6.893,0-12.5-5.607-12.5-12.5s5.608-12.5,12.5-12.5    c6.893,0,12.5,5.607,12.5,12.5S262.895,89.999,256.001,89.999z" fill="#6f6dff"/>
	</g>
</g>
<g>
</g>
<g>
</g>
<g>
</g>
<g>
</g>
<g>
</g>
<g>
</g>
<g>
</g>
<g>
</g>
<g>
</g>
<g>
</g>
<g>
</g>
<g>
</g>
<g>
</g>
<g>
</g>
<g>
</g>
</svg>
