<svg xmlns="http://www.w3.org/2000/svg" xmlns:xlink="http://www.w3.org/1999/xlink" width="45" height="45" viewBox="0 0 45 45">
  <defs>
    <linearGradient id="linear-gradient" x1="0.146" y1="0.847" x2="0.768" y2="0.092" gradientUnits="objectBoundingBox">
      <stop offset="0" stop-color="#f54ea2"/>
      <stop offset="1" stop-color="#ff7676"/>
    </linearGradient>
  </defs>
  <g id="Group_171" data-name="Group 171" transform="translate(-316 -432)">
    <circle id="Ellipse_26" data-name="Ellipse 26" cx="22.5" cy="22.5" r="22.5" transform="translate(316 432)" fill="url(#linear-gradient)"/>
    <g id="girl" transform="translate(302 432)">
      <path id="Path_204" data-name="Path 204" d="M57.9,6.983C57.9,2.974,55.617,0,51.69,0a7.74,7.74,0,0,0-4.647,1.6.775.775,0,0,0-1.235.711A9.571,9.571,0,0,0,40.828,0a8.376,8.376,0,0,0-3.879.776A8.376,8.376,0,0,0,33.069,0a9.571,9.571,0,0,0-4.981,2.316A.775.775,0,0,0,26.854,1.6,7.74,7.74,0,0,0,22.207,0C18.279,0,16,2.974,16,6.983c0,4.07,4.526,15,2.328,21.724,0,0,5.081-1.751,7.329-8.575a2.335,2.335,0,0,0,.429.04v.776a4.655,4.655,0,0,0,2.865,4.3l3.342,1.393v2.5a1.552,1.552,0,0,1-1.061,1.472L28.1,31.766l-.054-.086a.776.776,0,0,0-1.057-.254l-2.549,1.529a.775.775,0,0,0-.3.993,3.875,3.875,0,0,0-.683,1.733l-.891,6.683A2.328,2.328,0,0,0,24.865,45H49.031a2.328,2.328,0,0,0,2.307-2.635l-.891-6.683a3.874,3.874,0,0,0-.683-1.733.776.776,0,0,0-.3-.993l-2.549-1.529a.776.776,0,0,0-1.057.254l-.054.086-3.137-1.154A1.552,1.552,0,0,1,41.6,29.14v-2.5l3.342-1.393a4.655,4.655,0,0,0,2.865-4.3v-.776a2.335,2.335,0,0,0,.429-.04c2.249,6.824,7.329,8.575,7.329,8.575C53.371,21.983,57.9,11.053,57.9,6.983Z" fill="#ffd7a3"/>
      <path id="Path_205" data-name="Path 205" d="M185.192,274h-8.276v2.282h0c0,.034,0,.067,0,.1,0,.017,0,.034-.005.051s0,.028,0,.041-.008.052-.014.078v0a1.379,1.379,0,0,1-.64.908A9.366,9.366,0,0,0,185.192,274Z" transform="translate(-144.161 -247.134)" fill="#fdc88e"/>
      <g id="Group_126" data-name="Group 126" transform="translate(46.862)">
        <path id="Path_206" data-name="Path 206" d="M320,2.759A7.339,7.339,0,0,1,325.517,0c3.491,0,5.517,2.644,5.517,6.207,0,3.618-4.023,13.333-2.069,19.31,0,0-5.172-1.782-6.9-8.966-1.581-6.588.69-11.034.69-11.034Z" transform="translate(-320)" fill="#d48f60"/>
      </g>
      <g id="Group_127" data-name="Group 127" transform="translate(48.308 2.463)">
        <path id="Path_207" data-name="Path 207" d="M337.739,29.558s2.2-1.638,3.793-.69c3.51,2.087.643,7.822,0,11.034-.862,4.31-.517,8.448,2.759,11.724,0,0-5.172-1.782-6.9-8.966-1.581-6.588.345-11.034.345-11.034Z" transform="translate(-336.771 -28.573)" fill="#c57e52"/>
      </g>
      <g id="Group_128" data-name="Group 128" transform="translate(46.099 1.289)">
        <path id="Path_208" data-name="Path 208" d="M326.124,18.033h0a.69.69,0,0,0,.054-.974L324.5,15.184a.69.69,0,0,0-.974-.054h0a.69.69,0,0,0-.054.974l1.678,1.875A.69.69,0,0,0,326.124,18.033Z" transform="translate(-323.297 -14.954)" fill="#43a0c5"/>
      </g>
      <g id="Group_129" data-name="Group 129" transform="translate(16)">
        <path id="Path_209" data-name="Path 209" d="M27.034,2.759A7.339,7.339,0,0,0,21.517,0C18.026,0,16,2.644,16,6.207c0,3.618,4.023,13.333,2.069,19.31,0,0,5.172-1.782,6.9-8.966,1.581-6.588-.69-11.034-.69-11.034Z" transform="translate(-16)" fill="#d48f60"/>
      </g>
      <g id="Group_130" data-name="Group 130" transform="translate(18.069 2.463)">
        <path id="Path_210" data-name="Path 210" d="M46.638,29.558s-2.284-1.638-3.879-.69c-3.51,2.087-.643,7.822,0,11.034.862,4.31.517,8.448-2.759,11.724,0,0,5.172-1.782,6.9-8.966,1.581-6.588-.259-11.034-.259-11.034Z" transform="translate(-40 -28.573)" fill="#c57e52"/>
      </g>
      <g id="Group_131" data-name="Group 131" transform="translate(24.741 1.289)">
        <path id="Path_211" data-name="Path 211" d="M105.473,18.033h0a.69.69,0,0,1-.054-.974l1.678-1.875a.69.69,0,0,1,.974-.054h0a.69.69,0,0,1,.054.974l-1.678,1.875A.69.69,0,0,1,105.473,18.033Z" transform="translate(-105.243 -14.954)" fill="#43a0c5"/>
      </g>
      <path id="Path_212" data-name="Path 212" d="M121.624,94.207V92.828c0-1.9-1.85-4.828-4.133-4.828H102.613c-2.282,0-4.133,2.923-4.133,4.828v1.379a2.1,2.1,0,1,0,0,4.138v.69a4.2,4.2,0,0,0,3.052,3.82l5.341,1.857a9.705,9.705,0,0,0,3.179.531h0a9.707,9.707,0,0,0,3.179-.531l5.341-1.857a4.2,4.2,0,0,0,3.052-3.82v-.69a2.1,2.1,0,1,0,0-4.138Z" transform="translate(-73.103 -78.747)" fill="#ffe1b2"/>
      <g id="Group_132" data-name="Group 132" transform="translate(30.804 16.392)">
        <path id="Path_213" data-name="Path 213" d="M168.69,170.069h0a.692.692,0,0,1-.69-.69v-.69a.692.692,0,0,1,.69-.69h0a.692.692,0,0,1,.69.69v.69A.692.692,0,0,1,168.69,170.069Z" transform="translate(-168 -168)" fill="#623f33"/>
      </g>
      <g id="Group_133" data-name="Group 133" transform="translate(41.713 16.392)">
        <path id="Path_214" data-name="Path 214" d="M280.69,170.069h0a.692.692,0,0,1-.69-.69v-.69a.692.692,0,0,1,.69-.69h0a.692.692,0,0,1,.69.69v.69A.692.692,0,0,1,280.69,170.069Z" transform="translate(-280 -168)" fill="#623f33"/>
      </g>
      <g id="Group_135" data-name="Group 135" transform="translate(33.5 21.857)">
        <g id="Group_134" data-name="Group 134">
          <path id="Path_215" data-name="Path 215" d="M195.447,226.086a5.744,5.744,0,0,1-3.147-.828.69.69,0,0,1,.776-1.14,5.066,5.066,0,0,0,4.741,0,.69.69,0,0,1,.776,1.14A5.744,5.744,0,0,1,195.447,226.086Z" transform="translate(-191.999 -223.998)" fill="#e4b07b"/>
        </g>
      </g>
      <path id="Path_216" data-name="Path 216" d="M98.069,77.759a2.069,2.069,0,0,0,0,4.138v.69a4.138,4.138,0,0,0,2.546,3.82l4.456,1.857a6.906,6.906,0,0,0,.666.237,28.783,28.783,0,0,1-4.048-3.523,3.233,3.233,0,0,1-.862-2.209V78.913c1.974-.689,7.515-2.952,7.586-6.671A11.343,11.343,0,0,0,108.27,70C107.239,75.527,98.765,77.759,98.069,77.759Z" transform="translate(-71.81 -62.562)" fill="#ffd7a3"/>
      <g id="Group_136" data-name="Group 136" transform="translate(25.491 32.836)">
        <path id="Path_217" data-name="Path 217" d="M118.475,323.225l-2.482,3.971a2.069,2.069,0,0,1-1.754.972h-7.362a2.069,2.069,0,0,1-1.754-.972l-2.482-3.971a.69.69,0,0,0-.94-.226l-2.265,1.359a.69.69,0,0,0-.23.957l3.076,4.922h16.552l3.076-4.922a.69.69,0,0,0-.23-.957L119.414,323A.69.69,0,0,0,118.475,323.225Z" transform="translate(-99.101 -322.901)" fill="#57b9dd"/>
      </g>
      <g id="Group_137" data-name="Group 137" transform="translate(28.672 40.172)">
        <rect id="Rectangle_125" data-name="Rectangle 125" width="16.552" height="4.828" fill="#43a0c5"/>
      </g>
      <path id="Path_218" data-name="Path 218" d="M114.119,0a10.387,10.387,0,0,0-4.133.69A10.387,10.387,0,0,0,105.854,0c-2.686,0-12.88,4.315-9.091,14.315,0,0,13.224-1.959,13.224-6.729,0,4.77,13.224,6.729,13.224,6.729C127,4.315,116.805,0,114.119,0Z" transform="translate(-73.038)" fill="#d48f60"/>
      <g id="Group_138" data-name="Group 138" transform="translate(24.148)">
        <path id="Path_219" data-name="Path 219" d="M107.659.69h0A7.445,7.445,0,0,0,104.211,0c-2.241,0-10.747,4.315-7.586,14.315,0,0,1.336-.238,3.077-.747C97.753,4.6,105.521.7,107.659.69Z" transform="translate(-95.929)" fill="#ca8357"/>
      </g>
    </g>
  </g>
</svg>
