<?xml version="1.0" encoding="iso-8859-1"?>
<!-- Generator: Adobe Illustrator 19.0.0, SVG Export Plug-In . SVG Version: 6.00 Build 0)  -->
<svg version="1.1" id="Capa_1" xmlns="http://www.w3.org/2000/svg" xmlns:xlink="http://www.w3.org/1999/xlink" x="0px" y="0px"
	 viewBox="0 0 512 512" style="enable-background:new 0 0 512 512;" xml:space="preserve">
<path style="fill:#303C42;" d="M501.333,405.333h-11.456l-18.305-237.938C469.875,145.302,451.188,128,429.031,128H402.73
	c-8.622-42.298-41.47-74.927-83.161-83.202c0.077-0.736,0.431-1.376,0.431-2.132c0-11.76-9.573-21.333-21.333-21.333
	c-11.76,0-21.333,9.573-21.333,21.333c0,0.755,0.354,1.396,0.431,2.132c-41.691,8.275-74.539,40.904-83.161,83.202h-26.301
	c-22.156,0-40.844,17.302-42.542,39.385l-17.546,228.079c-1.943-2.951-3.435-6.212-3.704-9.944L87.427,146.292
	c-1.583-22.219-20.281-39.625-42.552-39.625H10.667C4.771,106.667,0,111.438,0,117.333S4.771,128,10.667,128h34.208
	c11.135,0,20.479,8.708,21.281,19.813L83.24,387.042c1.283,18.005,13.875,32.674,30.43,37.656
	c-4.397,6.708-7.003,14.697-7.003,23.302c0,23.531,19.135,42.667,42.667,42.667S192,471.531,192,448
	c0-7.806-2.259-15.033-5.934-21.333h225.201c-3.674,6.301-5.934,13.527-5.934,21.333c0,23.531,19.135,42.667,42.667,42.667
	s42.667-19.135,42.667-42.667c0-7.806-2.259-15.033-5.934-21.333h16.6c5.896,0,10.667-4.771,10.667-10.667
	C512,410.104,507.229,405.333,501.333,405.333z"/>
<path style="fill:#F3F3F3;" d="M298.667,64c39.448,0,72.819,26.842,82.371,64H216.296C225.848,90.842,259.219,64,298.667,64z"/>
<path style="opacity:0.2;fill:#FFFFFF;enable-background:new    ;" d="M216.296,128H256c4.948-37.158,22.233-64,42.667-64
	C259.219,64,225.848,90.842,216.296,128z"/>
<path style="opacity:0.1;fill:#010101;enable-background:new    ;" d="M298.667,64c20.434,0,37.719,26.842,42.667,64h39.704
	C371.486,90.842,338.115,64,298.667,64z"/>
<path style="fill:#F3F3F3;" d="M147.031,169.021c0.844-11.042,10.188-19.688,21.271-19.688h260.729
	c11.083,0,20.427,8.646,21.271,19.698l18.178,236.302H128.853L147.031,169.021z"/>
<polygon style="opacity:0.1;fill:#010101;enable-background:new    ;" points="290.371,149.333 279.186,405.333 313.186,405.333 
	301.333,149.333 "/>
<circle style="fill:#E6E6E5;" cx="149.333" cy="448" r="21.333"/>
<path style="opacity:0.1;fill:#010101;enable-background:new    ;" d="M164.462,433c0.076,0.729,0.427,1.362,0.427,2.111
	c0,11.76-9.573,21.333-21.333,21.333c-5.913,0-11.26-2.432-15.129-6.333c1.113,10.723,9.895,19.223,20.906,19.223
	c11.76,0,21.333-9.573,21.333-21.333C170.667,442.152,168.288,436.858,164.462,433z"/>
<circle style="fill:#E6E6E5;" cx="448" cy="448" r="21.333"/>
<g>
	<polygon style="opacity:0.1;fill:#010101;enable-background:new    ;" points="205.333,149.333 177.333,405.333 211.333,405.333 
		216.296,149.333 	"/>
	<polygon style="opacity:0.1;fill:#010101;enable-background:new    ;" points="387.038,149.333 415.038,405.333 381.038,405.333 
		376.076,149.333 	"/>
	<path style="opacity:0.1;fill:#010101;enable-background:new    ;" d="M463.129,433c0.076,0.729,0.427,1.362,0.427,2.111
		c0,11.76-9.573,21.333-21.333,21.333c-5.913,0-11.26-2.432-15.129-6.333c1.113,10.723,9.895,19.223,20.906,19.223
		c11.76,0,21.333-9.573,21.333-21.333C469.333,442.152,466.954,436.858,463.129,433z"/>
</g>
<linearGradient id="SVGID_1_" gradientUnits="userSpaceOnUse" x1="-47.3798" y1="639.6445" x2="-22.2189" y2="627.9116" gradientTransform="matrix(21.3333 0 0 -21.3333 996.3334 13791.667)">
	<stop  offset="0" style="stop-color:#FFFFFF;stop-opacity:0.2"/>
	<stop  offset="1" style="stop-color:#FFFFFF;stop-opacity:0"/>
</linearGradient>
<path style="fill:url(#SVGID_1_);" d="M501.333,405.333h-11.456l-18.305-237.938C469.875,145.302,451.188,128,429.031,128H402.73
	c-8.622-42.298-41.47-74.927-83.161-83.202c0.077-0.736,0.431-1.376,0.431-2.132c0-11.76-9.573-21.333-21.333-21.333
	c-11.76,0-21.333,9.573-21.333,21.333c0,0.755,0.354,1.396,0.431,2.132c-41.691,8.275-74.539,40.904-83.161,83.202h-26.301
	c-22.156,0-40.844,17.302-42.542,39.385l-17.546,228.079c-1.943-2.951-3.435-6.212-3.704-9.944L87.427,146.292
	c-1.583-22.219-20.281-39.625-42.552-39.625H10.667C4.771,106.667,0,111.438,0,117.333S4.771,128,10.667,128h34.208
	c11.135,0,20.479,8.708,21.281,19.813L83.24,387.042c1.283,18.005,13.875,32.674,30.43,37.656
	c-4.397,6.708-7.003,14.697-7.003,23.302c0,23.531,19.135,42.667,42.667,42.667S192,471.531,192,448
	c0-7.806-2.259-15.033-5.934-21.333h225.201c-3.674,6.301-5.934,13.527-5.934,21.333c0,23.531,19.135,42.667,42.667,42.667
	s42.667-19.135,42.667-42.667c0-7.806-2.259-15.033-5.934-21.333h16.6c5.896,0,10.667-4.771,10.667-10.667
	C512,410.104,507.229,405.333,501.333,405.333z"/>
<g>
</g>
<g>
</g>
<g>
</g>
<g>
</g>
<g>
</g>
<g>
</g>
<g>
</g>
<g>
</g>
<g>
</g>
<g>
</g>
<g>
</g>
<g>
</g>
<g>
</g>
<g>
</g>
<g>
</g>
</svg>
