<svg xmlns="http://www.w3.org/2000/svg" xmlns:xlink="http://www.w3.org/1999/xlink" viewBox="0 0 28 28">
  <defs>
    <style>
      .cls-1 {
        fill: #edf2f5;
      }

      .cls-2 {
        clip-path: url(#clip-path);
      }

      .cls-3 {
        fill: #888e9b;
      }
    </style>
    <clipPath id="clip-path">
      <rect id="Rectangle_27" data-name="Rectangle 27" class="cls-1" width="28" height="28" transform="translate(40 123)"/>
    </clipPath>
  </defs>
  <g id="Mask_Group_12" data-name="Mask Group 12" class="cls-2" transform="translate(-40 -123)">
    <g id="feedback" transform="translate(40 123)">
      <path id="Path_27" data-name="Path 27" class="cls-3" d="M26.136,2.8H16.818V1.864A1.869,1.869,0,0,0,14.954,0H1.909A1.869,1.869,0,0,0,.046,1.864v10.25c0,5.125,4.892,5.125,6.522,5.125a.466.466,0,0,0,0-.932A1.869,1.869,0,0,1,4.7,14.443v-.186a1.96,1.96,0,0,1,1.957-1.677h6.429v.932H8.9a.44.44,0,0,0-.466.466A4.183,4.183,0,0,0,9.55,16.819a4.5,4.5,0,0,0-.186,1.351,4.708,4.708,0,0,0,2.8,4.286c0,.28-.14.839-1.4.839a2.307,2.307,0,0,0-2.329,2.329v2.329h.932V25.624a1.384,1.384,0,0,1,1.3-1.4l2.283,1.118a3.235,3.235,0,0,0,.606.233v2.376h.932V25.577a2.307,2.307,0,0,0,.606-.186l2.283-1.118a1.384,1.384,0,0,1,1.3,1.4V28h.932V25.671a2.307,2.307,0,0,0-2.329-2.329c-1.258,0-1.4-.559-1.4-.839a4.637,4.637,0,0,0,2.8-4.426V17.75a3.692,3.692,0,0,0-.466-1.864h3.121a1.96,1.96,0,0,1,1.957,1.677,1.88,1.88,0,0,1-1.677,2.05H21.43a.466.466,0,0,0,0,.932c1.631,0,6.522,0,6.522-5.125V4.659A1.8,1.8,0,0,0,26.136,2.8ZM6.661,11.647a2.913,2.913,0,0,0-2.889,2.516,2.93,2.93,0,0,0,.559,1.957C2.049,15.654.977,14.4.977,12.113V1.864A.935.935,0,0,1,1.909.932H14.954a.935.935,0,0,1,.932.932v8.852a.935.935,0,0,1-.932.932Zm2.749,2.8h5.078a3.26,3.26,0,0,1,3.215,2.8H12.625A3.26,3.26,0,0,1,9.41,14.443Zm5.87,7.221a.447.447,0,0,0-.326.419v.28a1.64,1.64,0,0,0,.932,1.584l-1.211.606a1.7,1.7,0,0,1-1.351,0l-1.165-.606a1.64,1.64,0,0,0,.932-1.584V22.13a.447.447,0,0,0-.326-.419A3.772,3.772,0,0,1,10.3,18.17a2.865,2.865,0,0,1,.047-.652,4.219,4.219,0,0,0,2.283.652h5.125A3.668,3.668,0,0,1,15.28,21.664Zm11.787-6.29c0,2.283-1.072,3.541-3.354,4.007a2.93,2.93,0,0,0,.559-1.957,2.878,2.878,0,0,0-2.889-2.516H17.61a4.165,4.165,0,0,0-3.121-1.4h-.466v-.932h.932a1.869,1.869,0,0,0,1.864-1.864V3.727h9.318a.935.935,0,0,1,.932.932V15.374Z"/>
      <path id="Path_28" data-name="Path 28" class="cls-3" d="M10.761,5.125H10.3a.44.44,0,0,1-.466-.466v-1.4a1.4,1.4,0,0,0-2.8,0v1.4a.44.44,0,0,1-.466.466A.44.44,0,0,0,6.1,4.659H4.239a.44.44,0,0,0-.466.466V10.25a.44.44,0,0,0,.466.466H6.1a.44.44,0,0,0,.466-.466h4.193a1.373,1.373,0,0,0,1.4-1.4V6.522A1.373,1.373,0,0,0,10.761,5.125ZM5.636,9.784H4.7V5.591h.932Zm5.591-.932a.44.44,0,0,1-.466.466H6.568V6.057a1.373,1.373,0,0,0,1.4-1.4v-1.4a.466.466,0,1,1,.932,0v1.4a1.373,1.373,0,0,0,1.4,1.4h.466a.44.44,0,0,1,.466.466Z"/>
      <path id="Path_29" data-name="Path 29" class="cls-3" d="M25.67,4.659H23.806a.44.44,0,0,0-.466.466H19.147a1.373,1.373,0,0,0-1.4,1.4V8.852a1.373,1.373,0,0,0,1.4,1.4h.466a.44.44,0,0,1,.466.466v1.4a1.4,1.4,0,1,0,2.8,0v-1.4a.44.44,0,0,1,.466-.466.44.44,0,0,0,.466.466H25.67a.44.44,0,0,0,.466-.466V5.125A.44.44,0,0,0,25.67,4.659ZM23.34,9.318a1.373,1.373,0,0,0-1.4,1.4v1.4a.466.466,0,1,1-.932,0v-1.4a1.373,1.373,0,0,0-1.4-1.4h-.466a.44.44,0,0,1-.466-.466V6.522a.44.44,0,0,1,.466-.466H23.34Zm1.864.466h-.932V5.591H25.2Z"/>
      <rect id="Rectangle_28" data-name="Rectangle 28" class="cls-3" width="1.864" height="0.932" transform="translate(17.284 12.113)"/>
      <path id="Path_30" data-name="Path 30" class="cls-3" d="M12.625,2.329V1.864h-.932v.466h-.466v.932h.466v.466h.932V3.261h.466V2.329Z"/>
    </g>
  </g>
</svg>
